<svg xmlns="http://www.w3.org/2000/svg" xmlns:xlink="http://www.w3.org/1999/xlink" viewBox="0 0 7581.08 1707.19"><defs><style>.cls-1,.cls-9{fill:#fff;}.cls-1,.cls-2{stroke:orange;stroke-miterlimit:10;stroke-width:20px;}.cls-11,.cls-2{fill:none;}.cls-3{font-size:589.76px;font-family:Nexa-XBold, Nexa;font-weight:700;}.cls-13,.cls-3{fill:orange;}.cls-4{letter-spacing:-0.05em;}.cls-5,.cls-6,.cls-7,.cls-8{fill:#02b20f;}.cls-5{letter-spacing:0em;}.cls-6{letter-spacing:-0.02em;}.cls-7{letter-spacing:0em;}.cls-8{letter-spacing:-0.03em;}.cls-10{clip-path:url(#clip-path);}.cls-11{stroke:#000;stroke-width:0.3px;}.cls-12{clip-path:url(#clip-path-2);}.cls-14{fill:#fda503;}.cls-15{fill:#fecc02;}.cls-16{fill:#fefefc;}.cls-17{fill:#08b114;}</style><clipPath id="clip-path" transform="translate(92.56)"><circle class="cls-1" cx="821.5" cy="821.5" r="811.5"/></clipPath><clipPath id="clip-path-2" transform="translate(92.56)"><circle class="cls-2" cx="821.5" cy="821.5" r="811.5"/></clipPath></defs><g id="Layer_2" data-name="Layer 2"><g id="Layer_1-2" data-name="Layer 1"><text class="cls-3" transform="translate(1882.05 1082.48)"><tspan class="cls-4">D</tspan><tspan x="412.24" y="0">YNAMIC </tspan><tspan class="cls-5" x="3004.81" y="0">GC </tspan><tspan class="cls-6" x="3998.54" y="0">C</tspan><tspan class="cls-7" x="4400.76" y="0">OR</tspan><tspan class="cls-8" x="5303.08" y="0">P</tspan></text><circle class="cls-9" cx="914.06" cy="821.5" r="811.5"/><g class="cls-10"><rect class="cls-9" x="107.91" y="809.3" width="1613.01" height="52"/><rect class="cls-9" x="108" y="915.19" width="1613" height="52"/><rect class="cls-9" x="108" y="1020.19" width="1613" height="52"/><rect class="cls-9" x="108" y="1126.19" width="1613" height="52"/><rect class="cls-9" x="108" y="1232.19" width="1613" height="52"/><rect class="cls-9" x="108" y="1337.19" width="1613" height="52"/><rect class="cls-9" x="108" y="1442.19" width="1613" height="52"/><rect class="cls-9" x="108" y="1547.19" width="1613" height="52"/><line class="cls-11" x1="108" y1="861.19" x2="108" y2="897.19"/><line class="cls-11" x1="54" y1="915.19" x2="90" y2="915.19"/><line class="cls-11" x1="54" y1="1599.19" x2="90" y2="1599.19"/><line class="cls-11" x1="108" y1="1653.19" x2="108" y2="1617.19"/><line class="cls-11" x1="1721" y1="861.19" x2="1721" y2="897.19"/><line class="cls-11" x1="1775" y1="915.19" x2="1739" y2="915.19"/><line class="cls-11" x1="1775" y1="1599.19" x2="1739" y2="1599.19"/><line class="cls-11" x1="1721" y1="1653.19" x2="1721" y2="1617.19"/><line class="cls-11" x1="54" y1="807.19" x2="54" y2="843.19"/><line class="cls-11" y1="861.19" x2="36" y2="861.19"/><line class="cls-11" y1="1653.19" x2="36" y2="1653.19"/><line class="cls-11" x1="54" y1="1707.19" x2="54" y2="1671.19"/><line class="cls-11" x1="1775" y1="807.19" x2="1775" y2="843.19"/><line class="cls-11" x1="1829" y1="861.19" x2="1793" y2="861.19"/><line class="cls-11" x1="1829" y1="1653.19" x2="1793" y2="1653.19"/><line class="cls-11" x1="1775" y1="1707.19" x2="1775" y2="1671.19"/></g><circle class="cls-2" cx="914.06" cy="821.5" r="811.5"/><g class="cls-12"><rect class="cls-13" x="107.91" y="809.3" width="1613.01" height="52"/><rect class="cls-13" x="108" y="915.19" width="1613" height="52"/><rect class="cls-13" x="108" y="1020.19" width="1613" height="52"/><rect class="cls-13" x="108" y="1126.19" width="1613" height="52"/><rect class="cls-13" x="108" y="1232.19" width="1613" height="52"/><rect class="cls-13" x="108" y="1337.19" width="1613" height="52"/><rect class="cls-13" x="108" y="1442.19" width="1613" height="52"/><rect class="cls-13" x="108" y="1547.19" width="1613" height="52"/><line class="cls-11" x1="108" y1="861.19" x2="108" y2="897.19"/><line class="cls-11" x1="54" y1="915.19" x2="90" y2="915.19"/><line class="cls-11" x1="54" y1="1599.19" x2="90" y2="1599.19"/><line class="cls-11" x1="108" y1="1653.19" x2="108" y2="1617.19"/><line class="cls-11" x1="1721" y1="861.19" x2="1721" y2="897.19"/><line class="cls-11" x1="1775" y1="915.19" x2="1739" y2="915.19"/><line class="cls-11" x1="1775" y1="1599.19" x2="1739" y2="1599.19"/><line class="cls-11" x1="1721" y1="1653.19" x2="1721" y2="1617.19"/><line class="cls-11" x1="54" y1="807.19" x2="54" y2="843.19"/><line class="cls-11" y1="861.19" x2="36" y2="861.19"/><line class="cls-11" y1="1653.19" x2="36" y2="1653.19"/><line class="cls-11" x1="54" y1="1707.19" x2="54" y2="1671.19"/><line class="cls-11" x1="1775" y1="807.19" x2="1775" y2="843.19"/><line class="cls-11" x1="1829" y1="861.19" x2="1793" y2="861.19"/><line class="cls-11" x1="1829" y1="1653.19" x2="1793" y2="1653.19"/><line class="cls-11" x1="1775" y1="1707.19" x2="1775" y2="1671.19"/></g><circle class="cls-2" cx="914.06" cy="821.5" r="811.5"/><circle class="cls-9" cx="820.92" cy="817.63" r="626.22" transform="translate(-245.15 819.96) rotate(-45)"/><circle class="cls-2" cx="913.48" cy="817.63" r="626.23"/><path class="cls-14" d="M363,911.23c.24,4.24-.87,8.44-.46,12.74,1.41,15.09,9,26.92,19.25,37.35,15.5,15.8,34.38,26.66,54.15,36,35.18,16.72,72.34,27.56,110.13,36.47,26.23,6.19,52.74,10.9,79.35,14.9q31.58,4.74,63.43,7.46,48.74,4.11,97.61,5.48c37.31,1.06,74.57.37,111.8-1.54s74.29-5.29,111.2-10.57c53.6-7.67,106.52-18.21,157.68-36.29,28.32-10,55.72-22,79.83-40.39,10-7.61,18.86-16.31,25.24-27.32,5.69-9.81,8.36-20.19,6.66-31.54a22.68,22.68,0,0,1,0-3c3.36.65,4.88,3.31,6.83,5.18,12.91,12.32,23.8,26,28.57,43.68,5.93,21.93.37,41.45-12.51,59.36-13.46,18.71-31.39,32.44-50.88,44.2-38.5,23.23-80.44,38.06-123.51,50.17-36.08,10.15-72.74,17.46-109.71,23.12-32.55,5-65.3,8.49-98.19,10.71-39.88,2.68-79.78,4.2-119.74,3.43-40.44-.77-80.81-2.91-121.05-7.21-26.14-2.79-52.2-6.18-78.07-10.8-37.82-6.74-75.25-15.14-111.9-26.9-29.23-9.37-57.79-20.31-84.74-35-23.92-13.07-46.37-28.16-62.88-50.53-21.64-29.34-21.08-60.95,1.58-89.53a155.24,155.24,0,0,1,17.11-18.14C360.58,912,361.38,911,363,911.23Z" transform="translate(92.56)"/><path class="cls-15" d="M913.92,718q0,81.42,0,162.82,0,71.17.09,142.35c0,7.23,0,7.11-7,7.41-37.75,1.64-75.51,2.51-113.28,1.84-21.46-.37-42.9-1.37-64.35-1.86-3.89-.08-3.72-2.19-3.72-4.8,0-21.15.11-42.29,0-63.44-.91-183.29-.42-366.59-.54-549.89,0-7.3,0-7.37,7.34-7.37H888.81c6,0,12,0,18,0,6.43,0,6.8.48,6.79,6.78l0,305.18v1ZM758,503.45q0,32,0,63.93c0,2-.94,4.44,2.83,4.34,24.1-.64,48.29,1.55,72.31-1.16,15.93-1.8,30.08-8.41,40.61-20.93,17.16-20.41,19.08-44.21,12.34-68.61-8.23-29.79-33.17-44.06-62.78-45.1-20.28-.71-40.61,0-60.92-.25-4-.05-4.5,1.41-4.48,4.86C758,461.5,758,482.48,758,503.45ZM852.11,701c-9.49,0-19,.07-28.46,0-2.67,0-3.9.56-3.79,3.56.22,6.15.2,12.32,0,18.48-.09,2.85.81,3.69,3.64,3.63,8.32-.17,16.65.08,25-.13,3.14-.08,3.85,1,3.91,4,.4,18.31.47,18.32-17.7,21.37-18.62,3.12-44.13-5.16-46.44-34.45-1.37-17.31,6.26-36.1,27-41.12,16.44-4,31.6-.4,45.46,8.86,2.68,1.79,3.79,1.55,5.3-1.09,3.63-6.33,7.33-12.64,11.32-18.74,1.87-2.86,1.59-4.32-1.27-6.28-20-13.74-42.13-18.22-65.84-14.11-15.57,2.7-29.22,9.58-39.92,21.62-10.44,11.76-15.51,25.66-16.67,41.17-2.1,28.2,9.61,55,36.15,67.61,32.28,15.34,62.94,8.5,92.38-8.79,2-1.16,2.4-2.92,2.39-5.07,0-18.81-.1-37.62,0-56.43,0-3.51-1.41-4.13-4.46-4.08C870.76,701.08,861.43,701,852.11,701Zm-30.2,292.37c26.93.21,43.67-5.63,58.47-17.1,2.26-1.74,4.17-3.19,1.55-6.65a170.64,170.64,0,0,1-11-17.16c-1.73-3-3.09-3.65-6-1.37a53.14,53.14,0,0,1-14.42,7.67c-27.87,10.39-52.27-1.79-57-29.29-3.89-22.48,11.85-44.41,36.36-44.9a55.71,55.71,0,0,1,34.08,10.51c3.38,2.39,5.25,2.86,7.48-1.33a119,119,0,0,1,9.88-15.51c2.76-3.69,2-5.65-1.45-8.2C861,856,840,850.66,816.91,854.52c-42.9,7.17-65,45.74-57.37,82.87C766.6,971.75,794.36,993.36,821.91,993.36Z" transform="translate(92.56)"/><path class="cls-14" d="M1145.44,876.45c0-36.14-.07-72.27.09-108.4,0-4.46-1.18-6.3-5.79-6.35-18.64-.19-37.29-.67-55.93-.93-6.28-.09-6.3.06-6.3-6.32q0-72.94,0-145.87c0-10.12.66-10-8.76-6.09q-65.34,27.4-130.75,54.66c-.76.32-1.58.54-2.32.9-3.39,1.68-4.33.41-4.09-3,1.25-17.76,2.36-35.53,3.6-53.3,1.13-16.24,2.42-32.48,3.57-48.73q3.39-47.79,6.7-95.59c.22-3.15.44-6.32.4-9.48s.89-4,4.14-2.95a431.33,431.33,0,0,1,66.86,28.78c48.31,25.88,90.37,59.7,126.64,100.7a497.06,497.06,0,0,1,72.66,108.2A526.65,526.65,0,0,1,1261,813.45c2.75,13.53,5.06,27.14,6.66,40.87a22.58,22.58,0,0,0,3.46,9.72c13.69,21.73,10.11,42.84-5.14,61.33-18,21.78-42.23,34.61-67.35,46.07-15.31,7-31.19,12.48-47.07,17.95-5,1.74-5.79,1.24-5.79-4V876.45Z" transform="translate(92.56)"/><path class="cls-14" d="M461.93,851.54q0,61.19.05,122.38c0,3.48-.64,5.19-4.51,3.6-27-11.1-53.26-23.6-74.57-44.3-8.69-8.44-15.61-18-18.94-30-3.52-12.63-1.88-24.63,4.83-35.54,4.11-6.69,5.41-13.75,6.42-21.17a530.47,530.47,0,0,1,34-127.37A506.4,506.4,0,0,1,477,600.39c38.22-49.81,84.3-90.67,139-121.69A456.15,456.15,0,0,1,693,444.5c3.75-1.29,4.87-.44,5.11,3.57q4,65.27,8.31,130.49c.24,3.71-.83,5.23-4.14,6.63-45.47,19.26-90.85,38.74-136.35,57.95-4.54,1.92-6,4.28-6,9.21.21,29.8,0,59.6,0,89.41,0,6.46-.19,6.53-6.39,5q-42.12-10.51-84.24-21C462.06,724,462,724,462,731.16q0,60.2,0,120.38Z" transform="translate(92.56)"/><path class="cls-15" d="M708.86,815.51q0,103.88.11,207.74c0,4.63-1.39,5.66-5.72,5.22q-37.46-3.77-74.94-7.11c-4.66-.41-4.56-3-4.55-6.39q.21-97.14.31-194.26c0-17.31-.06-34.63.06-51.94,0-3.23-.51-4.84-4.24-5.59-12.38-2.46-24.57-5.85-37-8.14-5.29-1-5.73-3.82-5.72-8q.09-37.71.07-75.41c0-14.54,0-14.46,13.47-20.14Q636.88,632,683,612.34c6.71-2.85,13.56-5.41,20.22-8.4,3.85-1.72,5.2-1.4,5.18,3.34-.13,33.29,0,66.58,0,99.87q0,54.18,0,108.36Z" transform="translate(92.56)"/><path class="cls-15" d="M1129.7,888.38c0,34.63,0,69.26.08,103.88,0,3.53-1,4.71-4.52,5.47-18.35,4-36.43,9.07-54.88,12.59-11.58,2.21-23.25,3.71-34.9,5.36-10.69,1.51-21.39,2.93-32,4.62-6.51,1-6.77,1-6.75-5.69q.28-114.6.6-229.22c0-9,0-9.31,9.12-9,35.26,1.37,70.55,1.39,105.82,2,2,0,4,.38,6,.55,3.74.33,8.75-1.42,10.87,1.31,1.81,2.32.63,7,.63,10.67Q1129.71,839.69,1129.7,888.38Z" transform="translate(92.56)"/><path class="cls-15" d="M928.64,853q0-84.9-.08-169.8c0-4.27,1.25-6.26,5.39-7.92q60.63-24.24,121-49.07c4.37-1.79,5.19-1.08,5.18,3.45q-.21,62.19,0,124.36c0,4.36-.94,6.06-5.83,5.92-22.79-.64-45.59-.74-68.38-1.3-4.19-.1-5.68,1.34-5.66,5.27,0,6.83-.12,13.65-.13,20.48q-.07,117.11,0,234.23c0,4.66-1.21,6.41-5.85,6.69q-20.16,1.21-40.28,3.07c-4.29.41-5.42-.83-5.41-5.07q.18-85.15.08-170.31Z" transform="translate(92.56)"/><path class="cls-15" d="M562.13,888.51c0,38.61-.11,77.22.12,115.83,0,4.69-1.27,5.1-5.12,3.88q-37.27-11.82-74.62-23.43c-2.82-.87-3.5-2.26-3.49-5q.17-114.33.23-228.65c0-5.78.34-6,5.93-4.55,24.1,6.28,48.17,12.64,72.28,18.85,3.74,1,4.77,2.93,4.76,6.71C562.08,811,562.13,849.73,562.13,888.51Z" transform="translate(92.56)"/><path class="cls-15" d="M575.11,891.9V776c0-5.89,0-6,6-4.57,8.4,2,16.73,4.34,25.16,6.19,4.08.89,4.06,3.48,4.06,6.66q-.16,68.43-.22,136.85c0,31.13-.08,62.26.09,93.39,0,4-.92,5.2-4.93,4.43-8.16-1.57-16.36-3-24.59-4.07-4.23-.56-5.7-2.09-5.67-6.64C575.2,969.49,575.11,930.69,575.11,891.9Z" transform="translate(92.56)"/><path class="cls-16" d="M758,503.45c0-21,.07-41.95-.07-62.92,0-3.45.43-4.91,4.48-4.86,20.31.24,40.64-.46,60.92.25,29.61,1,54.55,15.31,62.78,45.1,6.74,24.4,4.82,48.2-12.34,68.61-10.53,12.52-24.68,19.13-40.61,20.93-24,2.71-48.21.52-72.31,1.16-3.77.1-2.82-2.39-2.83-4.34Q757.95,535.42,758,503.45Zm33.89,0c0,11.66,0,23.31,0,35,0,1.56-1,4.14,2,4.13,11.45-.07,23,1.11,34.29-1.6,16.35-3.92,25-15.85,26.07-34.93,1.16-20.66-9.52-36.52-27.48-40-10.16-1.94-20.56-1.07-30.87-1.28-3.35-.07-4.2,1-4.15,4.23C792,480.5,791.86,492,791.86,503.47Z" transform="translate(92.56)"/><path class="cls-16" d="M852.11,701c9.32,0,18.65.09,28,0,3-.05,4.48.57,4.46,4.08-.15,18.81-.09,37.62,0,56.43,0,2.15-.41,3.91-2.39,5.07-29.44,17.29-60.1,24.13-92.38,8.79-26.54-12.62-38.25-39.41-36.15-67.61,1.16-15.51,6.23-29.41,16.67-41.17,10.7-12,24.35-18.92,39.92-21.62,23.71-4.11,45.8.37,65.84,14.11,2.86,2,3.14,3.42,1.27,6.28-4,6.1-7.69,12.41-11.32,18.74-1.51,2.64-2.62,2.88-5.3,1.09-13.86-9.26-29-12.85-45.46-8.86-20.69,5-28.32,23.81-27,41.12,2.31,29.29,27.82,37.57,46.44,34.45,18.17-3.05,18.1-3.06,17.7-21.37-.06-3-.77-4.06-3.91-4-8.32.21-16.65,0-25,.13-2.83.06-3.73-.78-3.64-3.63.2-6.16.22-12.33,0-18.48-.11-3,1.12-3.6,3.79-3.56C833.13,701.06,842.62,701,852.11,701Z" transform="translate(92.56)"/><path class="cls-16" d="M821.91,993.36c-27.55,0-55.31-21.61-62.37-56-7.62-37.13,14.47-75.7,57.37-82.87C840,850.66,861,856,879.81,870c3.42,2.55,4.21,4.51,1.45,8.2a119,119,0,0,0-9.88,15.51c-2.23,4.19-4.1,3.72-7.48,1.33a55.71,55.71,0,0,0-34.08-10.51c-24.51.49-40.25,22.42-36.36,44.9,4.77,27.5,29.17,39.68,57,29.29a53.14,53.14,0,0,0,14.42-7.67c2.92-2.28,4.28-1.59,6,1.37a170.64,170.64,0,0,0,11,17.16c2.62,3.46.71,4.91-1.55,6.65C865.58,987.73,848.84,993.57,821.91,993.36Z" transform="translate(92.56)"/><path class="cls-15" d="M791.86,503.47c0-11.48.11-23-.07-34.46,0-3.22.8-4.3,4.15-4.23,10.31.21,20.71-.66,30.87,1.28,18,3.45,28.64,19.31,27.48,40-1.07,19.08-9.72,31-26.07,34.93-11.26,2.71-22.84,1.53-34.29,1.6-3.07,0-2-2.57-2-4.13C791.82,526.78,791.86,515.13,791.86,503.47Z" transform="translate(92.56)"/><path class="cls-17" d="M500,150.25c-3.2,18.38-6.29,36.24-9.42,54.1-1.34,7.66-3.18,8.63-10.41,5.42-16.4-7.28-32.77-14.59-49.64-22.11.33,3.64,2.4,5.89,3.77,8.41,11.46,21,22.9,42.06,34.53,63,1.9,3.42,1.45,5.07-2.06,6.76a177.23,177.23,0,0,0-16.64,9.07c-3.18,2-4.36,1-5.92-1.88q-22.8-42.12-45.83-84.13c-3.42-6.28-6.8-12.58-10.37-18.77-1.29-2.25-1-3.45,1.35-4.66,7.8-4.1,15.57-8.28,23.23-12.63,2.18-1.24,3.73-.36,5.55.46q23.19,10.47,46.4,20.9c1.49.67,2.92,1.66,5.11,1.36,2-13,4-26.18,6-39.32.79-5.26,1.67-10.52,2.24-15.81.29-2.7,1.76-4.09,3.93-5.26,6.74-3.63,13.56-7.12,20.08-11.1,3.66-2.23,5.27-1.39,7.18,2.18,11.62,21.69,23.46,43.28,35.23,64.89,6.6,12.13,13.08,24.32,19.9,36.31,1.94,3.41,1.18,4.85-2,6.44-5.52,2.72-11,5.61-16.22,8.81-3.28,2-4.75,1.68-6.66-1.89-11.64-21.87-23.55-43.6-35.45-65.34C502.88,153.78,502.31,151.77,500,150.25Z" transform="translate(92.56)"/><path class="cls-17" d="M247.66,414.33c-7.08-4.05-13-7.6-19.07-10.89-15.8-8.57-30.72-18.61-46.12-27.83-2.9-1.74-3.44-3.19-1.41-6.12,3.7-5.32,7.19-10.81,10.34-16.47,1.76-3.18,3.31-3.23,6.11-1.47,17.72,11.17,35.52,22.22,53.28,33.32,15.22,9.52,30.37,19.15,45.69,28.52,2.84,1.74,3.14,3.06,1.33,5.68-2.92,4.25-5.72,8.59-8.22,13.08-1.65,3-3.84,4.06-7.14,4.38-30.13,2.93-60.24,6-90.36,9.08-1.12.11-2.23.39-4.66.83,6.29,3.78,11.51,7.06,16.87,10.09,15.92,9,31.18,19.1,46.86,28.51,3.05,1.83,3.32,3.37,1.41,6.21-3.52,5.24-6.88,10.6-10,16.08-1.85,3.21-3.47,4-6.94,1.82C216,496.64,196.2,484.35,176.47,472c-13.1-8.2-26.15-16.48-39.34-24.54-2.82-1.71-3.19-3.08-1.25-5.68a40.44,40.44,0,0,0,5.27-8.45c2.86-6.85,7.9-9,15.07-9.57,28.33-2.42,56.61-5.44,84.91-8.27C242.88,415.31,244.61,414.88,247.66,414.33Z" transform="translate(92.56)"/><path class="cls-17" d="M1485,423.73a54.38,54.38,0,0,1-14.9,38.61c-16.13,17.44-35.63,27.85-60.13,25.27-20.09-2.12-34.67-13.56-45.81-29.67-12.58-18.18-18.63-38-11.87-59.91,6-19.37,20.09-31.81,37.78-40.28,28.74-13.76,58.81-5.8,77.91,20C1478.12,391.48,1484.87,406.36,1485,423.73Zm-26.94-3.53c.06-22.18-18.16-41-39.76-41.07-21.94-.07-41.67,18.55-41.74,39.38-.06,22,18.52,41.72,39.34,41.86C1438.12,460.51,1458,441.56,1458.07,420.2Z" transform="translate(92.56)"/><path class="cls-17" d="M1557.77,577.58c0,27.53-27.22,48.51-53,40.94a35.4,35.4,0,0,1-17.93-12c-2.63-3.27-4.3-3.69-6.75.37-7.61,12.69-15.56,25.17-23.4,37.72-.85,1.37-1.42,3.43-3.39,3.19-1.74-.21-1.71-2.27-2.17-3.6-2.46-7.23-4.72-14.53-7.24-21.74a6.42,6.42,0,0,1,.76-6.45c8-11.69,15.6-23.57,23.66-35.18,2.42-3.5,3.24-6.59,1.47-10.55a66,66,0,0,1-3.36-9.91c-.82-3.09-2.22-3.27-5-2.27-10.18,3.6-20.51,6.76-30.68,10.4-3.55,1.28-4.92.48-5.9-3.09a152.69,152.69,0,0,0-5.6-16.51c-1.74-4.32-1-6.17,3.78-7.7,30.67-9.93,61.22-20.22,91.81-30.39,5.84-1.94,11.7-3.81,17.48-5.89,2.81-1,4.1-.4,5.07,2.58,6.13,19,12.52,37.86,18.67,56.82A39.49,39.49,0,0,1,1557.77,577.58Zm-24.8-3.4a5.55,5.55,0,0,0,0-1c-2.11-11.5-6.87-22.17-10.34-33.25-.64-2-2.32-1.52-3.74-1-9.45,3.15-18.87,6.4-28.34,9.48-2,.67-2.61,1.51-1.89,3.59,3.34,9.74,6.22,19.65,9.94,29.24a16.4,16.4,0,0,0,19.29,10.44C1526.43,589.85,1532.88,582.4,1533,574.18Z" transform="translate(92.56)"/><path class="cls-17" d="M110.94,659.94c17.84.38,36.21,6.27,49.86,22.71,10.89,13.13,13.15,28.77,11.77,45.13-1.31,15.4-3.26,30.75-4.5,46.16-.38,4.62-2.1,5.38-6.25,4.95-32.08-3.32-64.18-6.46-96.27-9.65-6.29-.63-12.57-1.36-18.87-1.8-2.82-.2-3.77-1.3-3.47-4.07,1.93-17.51,3.24-35.11,5.75-52.54C53.66,678.27,75.07,660.18,110.94,659.94ZM147,722c0-12.1-4-21.32-13.6-27.62-6.55-4.29-13.94-6.19-21.63-6.82-18.72-1.52-31.34,5.8-36.54,21.52-3.27,9.87-2.59,20.37-4,30.55-.35,2.42,1.54,2.45,3.26,2.62,22.15,2.15,44.3,4.28,66.44,6.57,2.58.27,3.65-.24,3.87-2.89C145.46,737.7,146.31,729.43,147,722Z" transform="translate(92.56)"/><path class="cls-17" d="M965.59,183.82C950.08,183,933,178.93,919,167c-17.93-15.19-22.91-35.34-19.56-57.75,3.4-22.81,13.31-41.73,34.81-52.76s64.2-7.88,83.77,20.24c2.24,3.22,2.65,5.17-1.29,7.3a125.89,125.89,0,0,0-13,8.38c-2.57,1.83-4.12,1.48-6.16-.89-7.89-9.17-18.23-13.72-30.09-14.79C949.37,75.13,936.62,83.1,930,100c-3.34,8.51-4.84,17.35-3.28,26.43,3.18,18.52,17.39,30.19,37.79,31.29,1.16.07,2.33.07,3.5.07,14.51-.05,20.92-6.91,20.35-21.48-.1-2.54-1.7-2.41-3.28-2.75-7.14-1.55-14.27-3.21-21.45-4.6-2.65-.51-3.84-1.4-3.16-4.26,1.27-5.34,2.46-10.69,3.46-16.08.47-2.58,1.58-3.25,4.08-2.72q23.16,5,46.36,9.79c2.65.54,3.12,1.71,2.59,4.15-3.42,15.76-6.81,31.53-10,47.33-.61,3-2.58,4.52-4.69,6.09C992.1,180.82,980.61,184,965.59,183.82Z" transform="translate(92.56)"/><path class="cls-17" d="M317,391.11c-7.73-21.76-15-42.43-22.41-63.08s-14.59-41-22.06-61.5c-1.2-3.26-.9-5.38,1.78-7.75,5.6-5,11-10.2,16.24-15.5,1.85-1.86,3.39-1.91,5.71-1q59.16,24,118.38,47.91c5.42,2.19,5.37,2.29,1.21,6.25-4.82,4.59-9.71,9.12-14.36,13.87-2.33,2.39-4.51,2.82-7.52,1.39-4.49-2.15-9.18-3.88-13.71-6-2.37-1.1-4.11-1.13-6.18.89q-20.19,19.68-40.65,39.06c-2.39,2.24-2.59,4.12-1.4,6.89,2,4.74,3.78,9.6,5.62,14.41.59,1.55,1.3,3.06-.3,4.57C330.76,377.87,324.2,384.21,317,391.11ZM301.82,272.2c6.4,16.9,12.27,32.26,18,47.66,1.16,3.13,2.43,2.26,4.12.63,8.27-7.95,16.52-15.92,24.86-23.8,2.42-2.28,2.23-3.48-.92-4.78-9.68-4-19.27-8.2-28.89-12.32Z" transform="translate(92.56)"/><path class="cls-17" d="M1592.89,725.45c1.25,25.91-7.94,41.48-25.53,49.22s-38.19,4.22-50.85-8.89c-7.94-8.23-11.4-18.58-12.63-29.74-1-9.09-2-18.19-2.61-27.31-.24-3.7-1.25-4.85-5-4.38-8.75,1.08-17.56,1.58-26.31,2.62-3.31.4-4.49-.64-4.74-3.81-.52-6.8-1.16-13.58-2-20.35-.38-3.13,1.2-3.5,3.7-3.73,27.32-2.52,54.63-5.14,81.95-7.71,11.59-1.09,23.19-2,34.77-3.2,3-.3,4.1.54,4.37,3.62C1589.69,691.51,1591.57,711.21,1592.89,725.45Zm-26.29,4.45c-.8-8.41-1.87-18-2.55-27.62-.24-3.4-1.55-4.15-4.66-3.82-9.75,1-19.51,2-29.3,2.75-3,.22-3.57,1.52-3.3,4.1,1,9.76,1.6,19.57,3,29.28,1.55,10.81,9.41,16.71,20,15.79C1559.92,749.49,1566.77,741.66,1566.6,729.9Z" transform="translate(92.56)"/><path class="cls-17" d="M727.45,171.25c-37,.69-58.9-23.07-63-57-2.44-20.35,2.21-38.71,16.37-54,21.26-23,61.7-26.76,86.95-8.3,2.34,1.71,2.55,2.87.7,5.05a141.91,141.91,0,0,0-10.16,13c-2.1,3.14-3.8,3.11-6.82,1.39-14.64-8.34-36.1-6.19-48,5.15-12.57,12-14.53,27-9.8,42.82,3.91,13.11,12.35,22.5,26.43,25.08,15.74,2.88,29.74-1.24,41.45-12.15,2.61-2.43,4.07-2.37,6.47-.05,4.31,4.15,8.78,8.16,13.41,12,2.3,1.89,2.1,3.14.27,5.17-11.75,13-26.76,19.32-43.83,21.34C734.45,171,730.94,171.05,727.45,171.25Z" transform="translate(92.56)"/><path class="cls-17" d="M1374.23,300.5c-3.65,0-7.8,1.07-10.82-.31s-1.84-6.25-3.12-9.43c-5.16-12.91-14-22.35-27-26.95-16.29-5.75-34.47,1.87-45.28,17.77-15.86,23.35-2.25,46.8,18.52,57a37.56,37.56,0,0,0,14.79,4.21c2.69.11,3.41,1.42,3.33,3.8-.23,6.15-.55,12.3-.53,18.44,0,3.11-1.19,4-4.16,3.88a58.67,58.67,0,0,1-28.8-8.65c-15.12-9.07-26.81-21.52-33.72-37.68-7.65-17.91-5.61-35.65,4.73-52,14.65-23.22,34.88-37.27,63.48-35.82,30.8,1.56,59.63,30.8,61.28,61.59.17,3.36-.92,4.51-4.18,4.27C1379.9,300.34,1377.06,300.5,1374.23,300.5Z" transform="translate(92.56)"/><path class="cls-17" d="M1123.87,236.26c-25.58-2-47.41-11.69-62.14-33.46-11.92-17.62-10.78-36.85-3.43-56,10.18-26.45,32.73-43.39,58.06-44a68.61,68.61,0,0,1,64.17,39.6c1.92,4.12,1.23,5.73-3.09,6.86a93.31,93.31,0,0,0-13.62,4.8c-3.48,1.51-5,.82-6.84-2.65-8.2-15.79-35.59-30-56.85-15.46-16.13,11.06-27.91,40.14-10.34,59,10.92,11.7,24.85,16.24,40.73,14.2,6.8-.87,6.77-1.12,8.78,5.61,1.38,4.62,2.54,9.32,4.2,13.84,1.28,3.49.07,4.75-3.21,5.49A77.35,77.35,0,0,1,1123.87,236.26Z" transform="translate(92.56)"/><path class="cls-17" d="M130.18,575.6c-.67-.94-1.37-2.06-2.19-3.07-10.28-12.65-20.52-25.32-30.9-37.89-2-2.41-2.7-4.5-1.54-7.63,2.75-7.48,5.16-15.09,7.56-22.7,1.16-3.65,2.31-3.79,4.65-.74,16.48,21.52,33.11,42.94,49.53,64.5a13.88,13.88,0,0,0,7.06,5.12c12.64,4.12,25.23,8.41,37.91,12.39,3.67,1.15,5.23,2.46,3.62,6.57-2.35,6-4.24,12.24-6.15,18.43-.85,2.74-2.14,3.12-4.78,2.22-13.06-4.44-26.2-8.64-39.28-13a14.41,14.41,0,0,0-8.72-.33c-25.06,6.66-50.16,13.17-75.25,19.71-1,.25-2,.34-2.92.64-3.08,1-4,.11-3-3q4.23-12.53,8.33-25.09c.82-2.53,2.85-2.89,5-3.38Q103,583,126.84,577.5C128,577.24,129.63,577.62,130.18,575.6Z" transform="translate(92.56)"/><path class="cls-17" d="M596.61,71.76c3.48-.51,3.47,2,4,3.75q6.72,21.92,13.32,43.86c6.73,22.25,13.39,44.53,20.25,66.75,1.06,3.45.69,5-3.14,5.92a178.13,178.13,0,0,0-17.62,5.4c-3.35,1.18-4.89.72-6-3-10-33.41-20.13-66.77-30.24-100.14-1.26-4.13-2.55-8.25-3.82-12.38-.37-1.24-1.15-2.58.87-3.2Z" transform="translate(92.56)"/></g></g></svg>